<?xml version="1.0" encoding="UTF-8"?>
<!DOCTYPE svg PUBLIC "-//W3C//DTD SVG 1.0//EN" "http://www.w3.org/TR/2001/REC-SVG-20010904/DTD/svg10.dtd">
<!-- Creator: CorelDRAW (Versión OEM) -->
<svg xmlns="http://www.w3.org/2000/svg" xml:space="preserve" width="4400px" height="381px" version="1.0" shape-rendering="geometricPrecision" text-rendering="geometricPrecision" image-rendering="optimizeQuality" fill-rule="evenodd" clip-rule="evenodd"
viewBox="0 0 1926.86 166.83"
 xmlns:xlink="http://www.w3.org/1999/xlink"
 xmlns:xodm="http://www.corel.com/coreldraw/odm/2003">
 <defs>
    <linearGradient id="id0" gradientUnits="userSpaceOnUse" x1="-8.25" y1="95.1" x2="1978.16" y2="6.15">
     <stop offset="0" stop-opacity="1" stop-color="#FBAC2A"/>
     <stop offset="1" stop-opacity="1" stop-color="#FBAC2A"/>
    </linearGradient>
    <linearGradient id="id1" gradientUnits="userSpaceOnUse" x1="-8.25" y1="95.1" x2="1978.16" y2="6.15">
     <stop offset="0" stop-opacity="1" stop-color="#FBAC2A"/>
     <stop offset="1" stop-opacity="1" stop-color="#FBAC2A"/>
    </linearGradient>
    <linearGradient id="id2" gradientUnits="userSpaceOnUse" x1="-8.25" y1="95.1" x2="1978.16" y2="6.15">
     <stop offset="0" stop-opacity="1" stop-color="#FBAC2A"/>
     <stop offset="1" stop-opacity="1" stop-color="#FBAC2A"/>
    </linearGradient>
    <linearGradient id="id3" gradientUnits="userSpaceOnUse" x1="-8.25" y1="95.1" x2="1978.16" y2="6.15">
     <stop offset="0" stop-opacity="1" stop-color="#FBAC2A"/>
     <stop offset="1" stop-opacity="1" stop-color="#FBAC2A"/>
    </linearGradient>
 </defs>
 <g id="Capa_x0020_1">
  <metadata id="CorelCorpID_0Corel-Layer"/>
  <g id="_2154049803632">
   <path fill="url(#id0)" d="M1926.71 86.93c-14.33,-0.07 -38.73,-14.26 -61.73,-13.69 -30.96,0.76 -64.87,20.53 -99.68,17.56 -37.05,-3.16 -54.18,-19.84 -88.26,-20.6 -42.45,-0.94 -78.34,24.3 -98.54,25.28 -28.28,1.38 -68.98,-45.01 -94.31,-45.19 -27.71,-0.19 -47.31,29.7 -72.49,40.1 -41.72,17.24 -46.74,1.58 -110.34,-5.96 -22.57,-2.67 -70.9,24.37 -90.91,26.44 -31.5,3.26 -56.28,-18.06 -87.45,-6.45 -14.26,5.31 -30.21,15.03 -42.12,17.78 -42.95,9.91 -59.53,-0.07 -93.04,-19.37 -49.27,-28.38 -70.1,-33.52 -98.34,-22.82 -33.71,12.76 -68.6,-7.98 -86.46,5.42 -50.7,38.01 -79.48,22.6 -109.97,12.4 -28.76,-9.63 -46.03,-21.23 -84.23,-23.74 -72.07,-4.72 -114.08,36.49 -204.14,41.78 -70.17,4.12 -108,-18.55 -170.36,-3 -82.01,20.45 -105.94,9.59 -150.73,-12.76 -20.67,-10.32 -46.9,-18.12 -83.39,-21.04l0 87.76 1926.49 0 0 -79.9z"/>
   <path fill="url(#id1)" d="M1926.86 82l0 -18.63c-14.33,-0.06 -26.27,-14.13 -49.26,-13.56 -30.96,0.76 -63.84,10.66 -98.65,7.69 -37.05,-3.16 -51.24,-9.38 -85.32,-10.14 -42.44,-0.94 -83.39,23.04 -103.58,24.02 -28.28,1.38 -80.17,-38.94 -105.49,-39.12 -27.72,-0.19 -41.75,25.88 -66.94,36.29 -41.72,17.23 -51.89,-0.12 -115.49,-7.66 -22.57,-2.67 -76.34,29.54 -96.35,31.61 -31.49,3.26 -45.59,-12.64 -76.76,-4.45 -15.32,4.03 -40.88,20.53 -52.79,23.28 -42.94,9.92 -55.45,-9.19 -90.13,-30.57 -47.68,-29.39 -70.35,-36.21 -98.59,-25.51 -33.71,12.76 -62.46,-5.41 -82.38,6.82 -61.74,37.91 -65.99,35.35 -96.47,25.14 -28.76,-9.62 -65.41,-34.02 -103.61,-36.52 -72.07,-4.73 -103.31,43.04 -196.59,41.21 -66.48,-1.3 -127,-11.27 -187.87,6.38 -77.92,22.59 -90.52,-8.11 -142.54,-28.03 -22.59,-8.65 -41.48,-7.59 -77.97,-10.51l-0.08 14.34c36.5,2.92 57.95,11.84 80.54,20.49 52.02,19.92 62.84,35.97 150.28,12.76 61.79,-16.4 108.46,2.09 178.91,0.57 95.31,-2.04 123.52,-44.07 195.59,-39.34 38.2,2.5 72.14,20.2 100.9,29.82 30.49,10.21 35.05,9.76 93.3,-18.49 22.11,-10.72 52.75,7.34 86.46,-5.42 28.25,-10.7 57.22,-9.42 106.49,18.96 33.5,19.3 41.94,33.15 84.89,23.23 11.91,-2.75 25.36,-7.46 39.62,-12.76 31.17,-11.61 58.45,4.69 89.95,1.44 20.01,-2.07 68.34,-29.12 90.91,-26.44 63.6,7.54 68.62,23.19 110.34,5.96 25.19,-10.41 48.6,-42.72 76.31,-42.53 25.33,0.17 68.74,49.34 97.01,47.96 20.2,-0.98 55.52,-26.6 97.97,-25.66 34.08,0.76 47.23,13.02 84.29,16.18 34.81,2.97 68.72,-8.3 99.67,-9.06 11.5,-0.28 23.77,2.26 34.97,4.89 11.19,2.62 21.3,5.32 28.46,5.36z"/>
   <path fill="url(#id2)" d="M0.22 40.66l0.04 10.79c36.49,2.91 60.75,3.56 83.34,12.21 52.02,19.92 64.41,52.43 139.62,24.13 57.41,-21.61 131.83,2.02 209.41,-6.42 91.91,-10.01 109.15,-45.8 181.22,-41.07 38.2,2.51 70.52,28.22 99.27,37.85 30.49,10.2 27.54,6.38 85.79,-21.86 22.11,-10.72 52.56,5.93 82.15,-10.25 28.25,-15.44 62.75,-12.82 103.29,20.96 59.39,49.5 62.05,52.96 140.97,9.24 27.08,-15 51.99,11.47 83.85,5.38 19.37,-3.71 74.05,-33.12 96.62,-30.45 63.6,7.54 59.83,22.75 101.55,5.51 25.19,-10.41 53.96,-39.91 81.68,-39.72 25.32,0.17 70.21,50.06 98.48,48.68 20.2,-0.98 57.47,-29.68 99.92,-28.73 34.08,0.76 49.78,7.91 86.84,11.07 34.81,2.97 66.17,-3.19 97.13,-3.96 22.99,-0.56 41.07,14.55 55.41,14.62l-0.07 -10.29c-14.34,-0.07 -34.73,-15.71 -57.73,-15.15 -30.95,0.77 -60.9,13.7 -95.71,10.73 -37.05,-3.16 -51.24,-13.91 -85.32,-14.66 -42.45,-0.95 -59.17,24.34 -95.14,21.48 -28.13,-2.24 -80.87,-44.44 -106.2,-44.61 -27.71,-0.19 -46,30.07 -71.19,40.48 -41.72,17.23 -42.34,8.23 -105.94,0.69 -22.58,-2.68 -87.07,20.07 -107.08,22.14 -31.5,3.26 -51.7,-18.32 -79.87,-4.1 -74.94,37.83 -53.7,32.25 -114.03,-3.01 -48.93,-28.59 -94.39,-41.91 -122.63,-31.21 -33.71,12.76 -66.33,7.8 -88.43,18.52 -58.26,28.24 -65.76,24.86 -96.24,14.66 -28.76,-9.63 -52.13,-31.8 -90.33,-34.3 -72.07,-4.73 -99.39,40.64 -191.87,48.35 -69.85,5.83 -111.73,-21.89 -172.72,-4.52 -80.98,23.08 -112.7,2.59 -164.72,-17.33 -22.59,-8.65 -44.87,-12.94 -81.36,-15.85z"/>
   <path fill="url(#id3)" d="M1926.71 42.24l0 -2.79c-14.33,-0.07 -29.83,-12.06 -52.83,-11.49 -30.95,0.76 -72.04,12.41 -106.84,9.44 -37.06,-3.16 -42.94,-14.18 -77.02,-14.93 -42.45,-0.95 -60.73,22.91 -96.7,20.05 -28.13,-2.23 -76.6,-42.34 -101.92,-42.52 -27.72,-0.19 -53.52,24.39 -78.71,34.79 -41.72,17.24 -32.13,11.1 -95.72,3.57 -22.57,-2.68 -88.17,23.76 -108.18,25.83 -31.49,3.26 -52.66,-23.74 -83.17,-11.49 -86.26,34.63 -56.41,35.73 -116.74,0.48 -48.93,-28.6 -89.96,-44.13 -118.21,-33.44 -33.7,12.77 -69.99,10.86 -92.1,21.58 -58.25,28.24 -62.6,27.67 -93.08,17.47 -28.76,-9.63 -45.27,-32.18 -83.47,-34.68 -72.06,-4.73 -111.44,39.07 -203.93,46.79 -69.85,5.82 -116.72,-20.11 -177.59,-2.46 -77.91,22.6 -99.7,3.3 -151.72,-16.62 -22.58,-8.65 -52.07,-15.16 -88.56,-18.08l0 2.76c36.49,2.92 64.27,9.39 86.85,18.04 52.02,19.92 73.81,39.22 151.73,16.63 60.87,-17.65 107.73,8.28 177.59,2.45 92.48,-7.72 125.09,-50.63 197.16,-45.91 38.2,2.51 57.37,23.8 86.13,33.42 30.48,10.21 37.65,12.02 95.9,-16.22 22.1,-10.72 57.64,-7.31 91.35,-20.07 28.24,-10.69 76.58,3.54 123.43,33.43 58.79,37.52 32.81,32.73 113.55,-2.84 29.62,-13.05 46.75,15.21 78.24,11.95 20.01,-2.07 86.97,-29.19 109.54,-26.52 63.6,7.54 57.58,13.89 99.3,-3.35 25.18,-10.4 47.98,-34.23 75.69,-34.04 25.33,0.18 83.4,40.07 111.53,42.31 35.98,2.86 47.66,-21.53 90.1,-20.59 34.08,0.76 53.49,12.04 90.54,15.2 34.81,2.97 65.73,-9.98 96.68,-10.74 23,-0.57 36.85,12.53 51.18,12.59z"/>
  </g>
 </g>
</svg>
