<?xml version="1.0" encoding="UTF-8"?>
<!DOCTYPE svg PUBLIC "-//W3C//DTD SVG 1.0//EN" "http://www.w3.org/TR/2001/REC-SVG-20010904/DTD/svg10.dtd">
<!-- Creator: CorelDRAW (Versión OEM) -->
<svg xmlns="http://www.w3.org/2000/svg" xml:space="preserve" width="499px" height="142px" version="1.0" shape-rendering="geometricPrecision" text-rendering="geometricPrecision" image-rendering="optimizeQuality" fill-rule="evenodd" clip-rule="evenodd"
viewBox="0 0 55.87 15.91"
 xmlns:xlink="http://www.w3.org/1999/xlink"
 xmlns:xodm="http://www.corel.com/coreldraw/odm/2003">
 <g id="Capa_x0020_1">
  <metadata id="CorelCorpID_0Corel-Layer"/>
  <g id="_2154049841264">
   <path fill="#373435" d="M10.01 0.27c0.97,0.26 1.84,0.69 2.61,1.24l2.86 9.02c-1.34,3.93 -5.52,6.2 -9.58,5.11 -4.25,-1.14 -6.76,-5.5 -5.63,-9.74 1.14,-4.25 5.5,-6.76 9.74,-5.63zm-3.6 11.31l-1.73 0c0,1.8 1.45,3.26 3.25,3.26 1.8,0 3.26,-1.46 3.26,-3.26l0 -2.47 0 -1.16 0 -3.64c0,-1.8 -1.46,-3.26 -3.26,-3.26 -1.8,0 -3.25,1.46 -3.25,3.26l1.73 0c0,-0.84 0.68,-1.52 1.52,-1.52 0.84,0 1.52,0.68 1.52,1.52l0 0.76c-0.45,-0.24 -0.97,-0.38 -1.52,-0.38 -1.8,0 -3.25,1.46 -3.25,3.26 0,1.79 1.45,3.25 3.25,3.25 0.55,0 1.07,-0.14 1.52,-0.38l0 0.76c0,0.84 -0.68,1.52 -1.52,1.52 -0.84,0 -1.52,-0.68 -1.52,-1.52zm1.52 -5.16c0.84,0 1.52,0.69 1.52,1.53 0,0.84 -0.68,1.52 -1.52,1.52 -0.84,0 -1.52,-0.68 -1.52,-1.52 0,-0.84 0.68,-1.53 1.52,-1.53zm7.09 3.35c-1.51,-1.14 -2.53,-3.3 -2.53,-5.78 0,-0.59 0.06,-1.16 0.16,-1.7l2.37 7.48z"/>
   <g>
    <path fill="#373435" fill-rule="nonzero" d="M22.39 4.41c-0.18,-0.09 -0.38,-0.15 -0.61,-0.2 -0.22,-0.04 -0.44,-0.06 -0.66,-0.06 -0.57,0 -1.01,0.16 -1.32,0.5 -0.32,0.34 -0.48,0.77 -0.48,1.29 0,0.53 0.15,0.95 0.45,1.28 0.3,0.33 0.71,0.5 1.23,0.5 0.25,0 0.47,-0.03 0.66,-0.08l0 -1.29 -1.05 0 0 -0.79 2 0 0 2.68c-0.28,0.08 -0.55,0.14 -0.83,0.19 -0.28,0.04 -0.54,0.07 -0.78,0.07 -0.82,0 -1.48,-0.21 -1.98,-0.63 -0.49,-0.42 -0.73,-1.04 -0.73,-1.85 0,-0.85 0.24,-1.5 0.72,-1.96 0.48,-0.46 1.14,-0.7 1.99,-0.7 0.3,0 0.56,0.02 0.77,0.05 0.21,0.03 0.44,0.08 0.69,0.16l-0.07 0.84zm1.2 0.34l0.84 0 0 0.83c0.04,-0.2 0.15,-0.41 0.34,-0.61 0.19,-0.2 0.42,-0.31 0.68,-0.31 0.04,0 0.09,0 0.14,0.01 0.04,0 0.09,0.01 0.15,0.02l0 0.96c-0.04,-0.02 -0.1,-0.04 -0.18,-0.06 -0.07,-0.01 -0.16,-0.02 -0.25,-0.02 -0.26,0 -0.45,0.11 -0.58,0.33 -0.13,0.22 -0.19,0.61 -0.19,1.16l0 1.34 -0.95 0 0 -3.65zm2.9 0.19c0.4,-0.18 0.83,-0.28 1.27,-0.28 0.56,0 0.96,0.12 1.21,0.37 0.24,0.24 0.37,0.63 0.37,1.17l0 0.47 0 0.92 0.05 0.81 -0.83 0c-0.02,-0.09 -0.03,-0.18 -0.04,-0.28 0,-0.09 -0.01,-0.18 -0.01,-0.26 -0.11,0.2 -0.27,0.35 -0.48,0.47 -0.21,0.11 -0.43,0.17 -0.66,0.17 -0.34,0 -0.64,-0.1 -0.9,-0.3 -0.25,-0.19 -0.38,-0.46 -0.38,-0.79 0,-0.26 0.06,-0.48 0.17,-0.65 0.11,-0.17 0.26,-0.3 0.43,-0.39 0.18,-0.09 0.38,-0.15 0.59,-0.18 0.22,-0.03 0.44,-0.04 0.67,-0.04l0.52 0c0,-0.29 -0.06,-0.49 -0.19,-0.61 -0.13,-0.12 -0.34,-0.18 -0.63,-0.18 -0.2,0 -0.4,0.03 -0.59,0.1 -0.19,0.07 -0.37,0.17 -0.54,0.3l-0.03 -0.82zm1.11 2.86c0.15,0 0.27,-0.03 0.38,-0.08 0.12,-0.06 0.21,-0.14 0.29,-0.24 0.07,-0.1 0.12,-0.22 0.15,-0.34 0.04,-0.13 0.05,-0.27 0.05,-0.43l-0.41 0c-0.3,0 -0.55,0.05 -0.75,0.13 -0.21,0.09 -0.31,0.26 -0.31,0.51 0,0.15 0.06,0.27 0.16,0.34 0.11,0.07 0.26,0.11 0.44,0.11zm3.02 -2.36l-0.7 0 0 -0.69 0.7 0 0 -0.51c0,-0.38 0.1,-0.68 0.31,-0.9 0.2,-0.23 0.49,-0.34 0.86,-0.34 0.12,0 0.24,0 0.35,0.02 0.12,0.01 0.23,0.03 0.34,0.05l-0.08 0.79c-0.07,-0.04 -0.14,-0.07 -0.21,-0.09 -0.07,-0.03 -0.14,-0.04 -0.2,-0.04 -0.15,0 -0.25,0.06 -0.32,0.16 -0.06,0.11 -0.1,0.24 -0.1,0.4l0 0.46 0.83 0 0 0.69 -0.83 0 0 2.96 -0.95 0 0 -2.96zm2.44 -0.69l0.95 0 0 3.65 -0.95 0 0 -3.65zm0 -1.58l0.95 0 0 0.91 -0.95 0 0 -0.91zm4.32 2.37c-0.1,-0.05 -0.2,-0.09 -0.29,-0.11 -0.09,-0.02 -0.21,-0.03 -0.36,-0.03 -0.29,0 -0.52,0.11 -0.7,0.32 -0.17,0.22 -0.26,0.5 -0.26,0.84 0,0.36 0.08,0.65 0.25,0.87 0.17,0.22 0.41,0.33 0.73,0.33 0.13,0 0.25,-0.02 0.38,-0.05 0.12,-0.04 0.24,-0.08 0.36,-0.13l0.04 0.8c-0.13,0.04 -0.28,0.07 -0.43,0.09 -0.15,0.02 -0.32,0.03 -0.52,0.03 -0.58,0 -1.03,-0.18 -1.34,-0.54 -0.31,-0.35 -0.47,-0.82 -0.47,-1.4 0,-0.55 0.16,-1 0.47,-1.36 0.31,-0.36 0.75,-0.54 1.3,-0.54 0.35,0 0.65,0.04 0.92,0.12l-0.08 0.76zm2.23 -2.09l1.62 0 1.91 4.95 -1.45 0 -0.37 -1.05 -1.86 0 -0.39 1.05 -1.34 0 1.88 -4.95zm0.81 1.02l-0.66 1.94 1.25 0 -0.59 -1.94zm3.2 -1.02l2.35 0c0.47,0 0.85,0.11 1.15,0.32 0.3,0.21 0.45,0.52 0.45,0.93 0,0.68 -0.31,1.1 -0.95,1.25 0.15,0.04 0.24,0.1 0.29,0.16 0.04,0.07 0.18,0.38 0.41,0.95l0.49 1.34 -1.38 0 -0.28 -0.89c-0.14,-0.43 -0.27,-0.72 -0.39,-0.86 -0.12,-0.14 -0.3,-0.21 -0.54,-0.21l-0.28 0 0 1.96 -1.32 0 0 -4.95zm1.32 2.06l0.35 0c0.3,0 0.54,-0.04 0.71,-0.1 0.17,-0.07 0.25,-0.23 0.25,-0.48 0,-0.21 -0.08,-0.35 -0.26,-0.43 -0.17,-0.08 -0.41,-0.11 -0.7,-0.11l-0.35 0 0 1.12zm4.3 -1.08l-1.22 0 0 -0.98 3.76 0 0 0.98 -1.22 0 0 3.97 -1.32 0 0 -3.97zm3.06 -0.98l3.49 0 0 0.94 -2.17 0 0 1.02 2.05 0 0 0.94 -2.05 0 0 1.12 2.25 0 0 0.93 -3.57 0 0 -4.95z"/>
    <path fill="#373435" fill-rule="nonzero" d="M23.62 10.99c-0.09,-0.04 -0.19,-0.07 -0.29,-0.09 -0.11,-0.02 -0.21,-0.03 -0.31,-0.03 -0.27,0 -0.47,0.08 -0.62,0.24 -0.15,0.16 -0.23,0.36 -0.23,0.61 0,0.24 0.07,0.44 0.21,0.6 0.15,0.15 0.34,0.23 0.58,0.23 0.12,0 0.22,-0.01 0.31,-0.03l0 -0.62 -0.49 0 0 -0.36 0.94 0 0 1.26c-0.13,0.03 -0.26,0.06 -0.39,0.08 -0.13,0.03 -0.26,0.04 -0.37,0.04 -0.39,0 -0.7,-0.1 -0.93,-0.3 -0.23,-0.2 -0.34,-0.49 -0.34,-0.87 0,-0.4 0.11,-0.7 0.33,-0.92 0.23,-0.22 0.54,-0.33 0.94,-0.33 0.14,0 0.26,0.01 0.36,0.02 0.1,0.02 0.21,0.04 0.33,0.08l-0.03 0.39zm1.02 0.55l0.15 0c0.19,0 0.32,-0.03 0.39,-0.09 0.07,-0.05 0.1,-0.13 0.1,-0.24 0,-0.12 -0.04,-0.2 -0.13,-0.24 -0.09,-0.04 -0.21,-0.06 -0.36,-0.06l-0.15 0 0 0.63zm-0.47 -1l0.5 0c0.26,0 0.45,0.01 0.58,0.03 0.14,0.02 0.26,0.07 0.36,0.16 0.11,0.09 0.16,0.24 0.16,0.44 0,0.14 -0.04,0.26 -0.13,0.36 -0.09,0.1 -0.2,0.16 -0.35,0.18 0.06,0.01 0.1,0.03 0.14,0.08 0.04,0.04 0.08,0.1 0.11,0.17l0.37 0.91 -0.52 0 -0.28 -0.72c-0.04,-0.1 -0.07,-0.16 -0.12,-0.19 -0.04,-0.04 -0.11,-0.06 -0.2,-0.06l-0.15 0 0 0.97 -0.47 0 0 -2.33zm3 0.47l-0.34 0.96 0.68 0 -0.34 -0.96zm-0.25 -0.47l0.52 0 0.92 2.33 -0.52 0 -0.2 -0.53 -0.94 0 -0.21 0.53 -0.48 0 0.91 -2.33zm0.27 -0.63l0.45 0 -0.45 0.48 -0.28 0 0.28 -0.48zm1.47 0.63l1.29 0 0 0.37 -0.82 0 0 0.57 0.78 0 0 0.37 -0.78 0 0 1.02 -0.47 0 0 -2.33zm1.63 0l0.46 0 0 2.33 -0.46 0 0 -2.33zm2.66 2.3c-0.09,0.02 -0.18,0.04 -0.27,0.05 -0.1,0.02 -0.18,0.03 -0.26,0.03 -0.39,0 -0.7,-0.1 -0.93,-0.3 -0.23,-0.2 -0.35,-0.49 -0.35,-0.87 0,-0.4 0.11,-0.7 0.34,-0.92 0.23,-0.22 0.54,-0.33 0.94,-0.33 0.08,0 0.17,0.01 0.26,0.03 0.1,0.01 0.19,0.04 0.27,0.07l-0.04 0.39c-0.08,-0.05 -0.16,-0.08 -0.24,-0.09 -0.08,-0.02 -0.16,-0.03 -0.26,-0.03 -0.24,0 -0.42,0.08 -0.57,0.24 -0.14,0.16 -0.21,0.36 -0.21,0.61 0,0.24 0.07,0.44 0.21,0.6 0.14,0.15 0.34,0.23 0.58,0.23 0.09,0 0.19,-0.01 0.29,-0.03 0.09,-0.02 0.17,-0.04 0.22,-0.07l0.02 0.39zm1.27 -1.83l-0.34 0.96 0.68 0 -0.34 -0.96zm-0.26 -0.47l0.53 0 0.91 2.33 -0.51 0 -0.2 -0.53 -0.95 0 -0.2 0.53 -0.49 0 0.91 -2.33zm3.6 0.47l-0.35 0.96 0.68 0 -0.33 -0.96zm-0.26 -0.47l0.53 0 0.91 2.33 -0.51 0 -0.21 -0.53 -0.94 0 -0.2 0.53 -0.49 0 0.91 -2.33zm2.17 1.08l0.16 0c0.14,0 0.25,-0.03 0.33,-0.08 0.08,-0.05 0.12,-0.14 0.12,-0.27 0,-0.12 -0.04,-0.22 -0.12,-0.27 -0.09,-0.06 -0.19,-0.09 -0.33,-0.09l-0.16 0 0 0.71zm-0.47 -1.08l0.59 0c0.3,0 0.53,0.06 0.71,0.16 0.18,0.11 0.27,0.29 0.27,0.55 0,0.25 -0.09,0.44 -0.25,0.56 -0.16,0.12 -0.38,0.18 -0.65,0.18l-0.2 0 0 0.88 -0.47 0 0 -2.33zm1.9 0l0.47 0 0 1.97 0.9 0 0 0.36 -1.37 0 0 -2.33zm1.63 0l0.47 0 0 2.33 -0.47 0 0 -2.33zm2.66 2.3c-0.09,0.02 -0.18,0.04 -0.27,0.05 -0.1,0.02 -0.18,0.03 -0.26,0.03 -0.39,0 -0.7,-0.1 -0.93,-0.3 -0.23,-0.2 -0.35,-0.49 -0.35,-0.87 0,-0.4 0.12,-0.7 0.34,-0.92 0.23,-0.22 0.54,-0.33 0.94,-0.33 0.08,0 0.17,0.01 0.26,0.03 0.1,0.01 0.19,0.04 0.27,0.07l-0.04 0.39c-0.08,-0.05 -0.16,-0.08 -0.24,-0.09 -0.08,-0.02 -0.16,-0.03 -0.26,-0.03 -0.24,0 -0.42,0.08 -0.57,0.24 -0.14,0.16 -0.21,0.36 -0.21,0.61 0,0.24 0.07,0.44 0.21,0.6 0.14,0.15 0.34,0.23 0.58,0.23 0.09,0 0.19,-0.01 0.29,-0.03 0.09,-0.02 0.17,-0.04 0.22,-0.07l0.02 0.39zm1.27 -1.83l-0.34 0.96 0.68 0 -0.34 -0.96zm-0.26 -0.47l0.53 0 0.92 2.33 -0.52 0 -0.2 -0.53 -0.95 0 -0.2 0.53 -0.48 0 0.9 -2.33zm1.75 0l0.63 0c0.41,0 0.74,0.09 0.98,0.26 0.25,0.18 0.37,0.48 0.37,0.91 0,0.43 -0.12,0.73 -0.37,0.9 -0.25,0.18 -0.57,0.26 -0.98,0.26l-0.63 0 0 -2.33zm0.46 1.97l0.26 0c0.21,0 0.39,-0.08 0.54,-0.22 0.15,-0.14 0.23,-0.34 0.23,-0.58 0,-0.24 -0.08,-0.44 -0.23,-0.58 -0.15,-0.15 -0.33,-0.22 -0.54,-0.22l-0.26 0 0 1.6zm2.87 -1.5l-0.34 0.96 0.68 0 -0.34 -0.96zm-0.26 -0.47l0.53 0 0.92 2.33 -0.52 0 -0.2 -0.53 -0.95 0 -0.2 0.53 -0.48 0 0.9 -2.33z"/>
   </g>
  </g>
 </g>
</svg>
